<!DOCTYPE svg PUBLIC "-//W3C//DTD SVG 1.1//EN" "http://www.w3.org/Graphics/SVG/1.1/DTD/svg11.dtd">
<!-- Uploaded to: SVG Repo, www.svgrepo.com, Transformed by: SVG Repo Mixer Tools -->
<svg fill="#48a22f" height="800px" width="800px" version="1.1" id="Layer_1" xmlns="http://www.w3.org/2000/svg" xmlns:xlink="http://www.w3.org/1999/xlink" viewBox="0 0 299.771 299.771" xml:space="preserve" stroke="#48a22f">
<g id="SVGRepo_bgCarrier" stroke-width="0"/>
<g id="SVGRepo_tracerCarrier" stroke-linecap="round" stroke-linejoin="round"/>
<g id="SVGRepo_iconCarrier"> <g> <path d="M279.616,20.152c-13.358-13.358-30.843-20.06-48.348-20.137c-0.102,0-0.2-0.015-0.302-0.015 c-0.097,0-0.189,0.015-0.287,0.015c-13.696,0.056-27.341,4.224-39.045,12.406c-3.267,2.284-6.405,4.818-9.318,7.731L20.155,182.318 c-26.87,26.87-26.87,70.431,0,97.3c13.435,13.435,31.043,20.152,48.65,20.152s35.215-6.717,48.65-20.152l81.08-81.08l81.08-81.08 C306.486,90.583,306.486,47.022,279.616,20.152z M106.115,268.278c-9.969,9.969-23.219,15.457-37.315,15.457 s-27.346-5.489-37.315-15.457c-20.572-20.572-20.572-54.052,0-74.629l81.08-81.08l74.624,74.624L106.115,268.278z"/> </g> </g>
</svg>